<svg xmlns="http://www.w3.org/2000/svg" version="1.1" xmlns:xlink="http://www.w3.org/1999/xlink" xmlns:svgjs="http://svgjs.dev/svgjs" width="1440" height="560" preserveAspectRatio="none" viewBox="0 0 1440 560"><g mask="url(&quot;#SvgjsMask1000&quot;)" fill="none"><rect width="1440" height="560" x="0" y="0" fill="#0e2a47"></rect><path d="M -837.0695523229382,443 C -741.07,380 -549.07,146.4 -357.0695523229382,128 C -165.07,109.6 -69.07,360 122.9304476770618,351 C 314.93,342 410.93,80.4 602.9304476770618,83 C 794.93,85.6 915.52,331.6 1082.9304476770617,364 C 1250.34,396.4 1368.59,268.8 1440,245" stroke="rgba(51, 121, 194, 0.58)" stroke-width="2"></path><path d="M -938.3133165751335,442 C -842.31,402.6 -650.31,236.6 -458.3133165751335,245 C -266.31,253.4 -170.31,514.8 21.686683424866487,484 C 213.69,453.2 309.69,89.2 501.6866834248665,91 C 693.69,92.8 794.02,479.6 981.6866834248665,493 C 1169.35,506.4 1348.34,225 1440,158" stroke="rgba(51, 121, 194, 0.58)" stroke-width="2"></path><path d="M -610.1186006354056,154 C -514.12,191 -322.12,321.6 -130.1186006354056,339 C 61.88,356.4 157.88,232 349.88139936459436,241 C 541.88,250 637.88,403.8 829.8813993645944,384 C 1021.88,364.2 1187.86,133.4 1309.8813993645945,142 C 1431.91,150.6 1413.98,370 1440,427" stroke="rgba(51, 121, 194, 0.58)" stroke-width="2"></path><path d="M -739.9176285959988,145 C -643.92,213.8 -451.92,497.4 -259.91762859599885,489 C -67.92,480.6 28.08,104.8 220.08237140400115,103 C 412.08,101.2 508.08,482.4 700.0823714040012,480 C 892.08,477.6 1032.1,116.2 1180.0823714040012,91 C 1328.07,65.8 1388.02,301.4 1440,354" stroke="rgba(51, 121, 194, 0.58)" stroke-width="2"></path></g><defs><mask id="SvgjsMask1000"><rect width="1440" height="560" fill="#ffffff"></rect></mask></defs></svg>